<?xml version="1.0" standalone="no"?>
<!DOCTYPE svg PUBLIC "-//W3C//DTD SVG 20010904//EN"
 "http://www.w3.org/TR/2001/REC-SVG-20010904/DTD/svg10.dtd">
<svg version="1.0" xmlns="http://www.w3.org/2000/svg"
 width="190.000000pt" height="190.000000pt" viewBox="0 0 190.000000 190.000000"
 preserveAspectRatio="xMidYMid meet">
<metadata>
Created by potrace 1.14, written by Peter Selinger 2001-2017
</metadata>
<g transform="translate(0.000000,190.000000) scale(0.100000,-0.100000)"
fill="#000000" stroke="none">
<path d="M756 1423 c-86 -29 -167 -128 -182 -221 l-7 -43 34 6 c19 3 77 14
129 25 52 11 110 22 127 25 18 3 61 12 95 19 35 8 81 17 103 21 22 3 43 9 47
13 11 11 -59 100 -101 126 -73 46 -165 57 -245 29z"/>
<path d="M952 1200 c-42 -10 -48 -16 -32 -35 25 -30 90 -8 90 31 0 15 -8 16
-58 4z"/>
<path d="M702 1150 c-44 -10 -46 -14 -22 -35 27 -24 73 -10 78 23 4 24 -2 25
-56 12z"/>
<path d="M1045 1132 c-2 -2 -37 -10 -77 -18 -40 -8 -84 -17 -98 -19 -26 -6
-172 -34 -229 -44 -19 -3 -36 -11 -38 -17 -6 -18 55 -92 97 -119 46 -29 118
-47 175 -44 119 8 231 112 250 233 l6 37 -41 -3 c-22 -1 -42 -4 -45 -6z"/>
<path d="M680 764 c0 -17 6 -24 19 -24 24 0 32 12 21 30 -15 24 -40 21 -40 -6z"/>
<path d="M989 788 c-11 -38 -7 -48 16 -48 24 0 32 15 17 35 -6 9 -31 18 -33
13z"/>
<path d="M463 623 c0 -79 1 -84 21 -81 18 3 21 10 21 63 l1 60 44 0 c25 1 50
-1 55 -2 6 -2 10 -30 10 -63 -1 -55 1 -60 21 -60 21 0 22 4 22 70 -1 94 -6 99
-112 98 l-84 -1 1 -84z"/>
<path d="M680 624 c0 -82 1 -85 22 -82 20 3 22 8 21 78 -1 41 -2 78 -2 83 -1
4 -10 7 -21 7 -18 0 -20 -7 -20 -86z"/>
<path d="M747 696 c-2 -6 -3 -42 -3 -81 1 -64 3 -70 23 -73 21 -3 22 1 22 52
-1 30 1 58 4 63 3 5 27 9 54 8 l48 0 2 -50 c0 -28 1 -56 2 -62 1 -7 10 -13 21
-13 18 0 20 7 20 75 0 62 -3 76 -19 84 -25 14 -169 11 -174 -3z"/>
<path d="M982 643 c0 -146 2 -138 -37 -139 -19 -1 -35 3 -35 7 0 5 -11 9 -24
9 -19 0 -22 -4 -18 -25 2 -15 13 -27 26 -30 27 -7 114 0 123 9 4 3 7 57 7 119
1 107 0 112 -20 115 -20 3 -22 -1 -22 -65z"/>
<path d="M1056 703 c-2 -2 -2 -12 1 -22 4 -15 15 -18 74 -16 44 1 68 -3 66 -9
-2 -6 -31 -11 -66 -11 -34 -1 -66 -6 -72 -12 -15 -15 -14 -74 2 -84 8 -5 52
-8 98 -7 l84 3 1 64 c1 93 -8 102 -104 100 -44 -1 -81 -4 -84 -6z m139 -114
c-7 -10 -105 -10 -105 1 0 10 54 17 87 11 13 -2 20 -7 18 -12z"/>
<path d="M345 670 c-11 -18 -2 -130 10 -130 8 0 12 23 12 70 0 65 -7 84 -22
60z"/>
<path d="M1589 645 c0 -19 -1 -49 -2 -67 0 -17 5 -34 11 -36 9 -3 12 17 12 67
0 41 -4 71 -10 71 -5 0 -10 -16 -11 -35z"/>
<path d="M1627 673 c-12 -11 -8 -23 8 -23 8 0 15 7 15 15 0 16 -12 20 -23 8z"/>
<path d="M14 626 c-2 -6 -5 -28 -7 -48 -3 -27 0 -38 9 -38 15 0 17 10 14 48
-1 22 3 23 58 22 4 0 7 -8 8 -18 3 -53 2 -52 54 -52 28 0 50 5 50 10 0 10 -25
14 -65 11 -16 -2 -17 0 -6 8 8 5 30 8 48 5 30 -3 32 -2 29 19 -3 12 -5 27 -5
33 -1 9 -61 12 -96 4 -5 -1 -12 -1 -15 0 -19 7 -73 5 -76 -4z m154 -23 c-10
-2 -26 -2 -35 0 -10 3 -2 5 17 5 19 0 27 -2 18 -5z"/>
<path d="M220 623 c0 -9 17 -14 48 -15 l47 -1 -45 -6 c-40 -5 -45 -9 -45 -31
0 -23 4 -25 51 -28 l50 -3 -1 41 c-1 22 -3 43 -3 48 -3 13 -102 8 -102 -5z
m74 -54 c-6 -11 -44 -12 -44 -1 0 4 11 8 25 8 14 1 22 -2 19 -7z"/>
<path d="M1349 629 c-6 -3 -9 -24 -7 -45 l3 -39 50 0 50 0 3 43 c2 29 -1 42
-10 43 -40 5 -81 4 -89 -2z m81 -38 c0 -10 -7 -22 -16 -25 -26 -10 -53 3 -51
24 2 28 67 29 67 1z"/>
<path d="M1466 631 c-2 -3 -4 -25 -4 -48 -1 -29 4 -43 12 -43 7 0 13 10 13 23
1 43 3 47 33 47 28 0 30 -3 30 -35 0 -19 4 -35 9 -35 12 0 18 40 11 69 -5 21
-12 25 -53 26 -26 1 -49 -1 -51 -4z"/>
<path d="M1625 630 c-3 -5 -5 -28 -3 -50 3 -56 25 -52 25 5 0 45 -10 65 -22
45z"/>
<path d="M1660 588 c0 -33 4 -48 13 -48 9 0 13 12 13 33 -1 29 2 32 32 35 31
3 32 2 32 -32 0 -20 5 -36 11 -36 6 0 9 19 7 47 l-3 47 -52 1 -53 1 0 -48z"/>
<path d="M1796 626 c-9 -7 -14 -25 -13 -46 2 -35 2 -35 55 -38 31 -2 52 1 52
7 0 6 -18 11 -40 11 -22 0 -40 4 -40 8 0 4 17 7 38 6 48 -1 52 1 43 33 -6 21
-13 26 -43 28 -21 2 -44 -2 -52 -9z m62 -23 c-10 -2 -26 -2 -35 0 -10 3 -2 5
17 5 19 0 27 -2 18 -5z"/>
</g>
</svg>
